<?xml version="1.0" standalone="no"?>
<!DOCTYPE svg PUBLIC "-//W3C//DTD SVG 20010904//EN"
 "http://www.w3.org/TR/2001/REC-SVG-20010904/DTD/svg10.dtd">
<svg version="1.0" xmlns="http://www.w3.org/2000/svg"
 width="300.000000pt" height="300.000000pt" viewBox="0 0 300.000000 300.000000"
 preserveAspectRatio="xMidYMid meet">
<metadata>
Created by potrace 1.10, written by Peter Selinger 2001-2011
</metadata>
<g transform="translate(0.000000,300.000000) scale(0.100000,-0.100000)"
fill="#000000" stroke="none">
<path d="M1280 2983 c-602 -92 -1090 -537 -1236 -1127 -17 -70 -26 -138 -29
-221 -3 -96 -2 -111 6 -75 5 25 12 68 14 95 3 28 7 64 11 80 3 17 8 44 11 60
5 35 45 171 68 235 29 79 96 208 149 288 71 106 78 114 191 227 103 104 186
168 290 225 33 18 69 39 80 46 83 53 342 129 486 143 132 13 170 30 64 29 -44
0 -91 -2 -105 -5z"/>
<path d="M1521 2986 c5 -5 68 -14 144 -21 33 -3 78 -10 100 -16 22 -5 49 -11
60 -12 22 -4 115 -31 181 -52 64 -21 222 -100 295 -147 87 -57 141 -100 217
-173 65 -61 212 -235 212 -250 0 -4 11 -22 24 -39 31 -41 97 -179 136 -286 41
-110 62 -209 75 -345 10 -100 24 -117 25 -28 0 159 -62 382 -161 573 -209 404
-596 695 -1041 781 -84 16 -280 27 -267 15z"/>
<path d="M1260 2643 c-50 -5 -169 -34 -210 -51 -69 -28 -171 -104 -209 -156
-64 -87 -88 -150 -105 -270 l-12 -78 -43 -15 c-100 -34 -148 -91 -174 -207
-15 -67 -11 -106 12 -120 5 -4 53 -7 105 -7 66 0 97 -4 98 -12 1 -7 2 -283 3
-615 1 -520 3 -604 16 -617 22 -23 270 -25 320 -3 38 17 99 75 99 96 0 6 4 12
8 12 12 0 11 -45 13 605 l2 580 30 63 c33 69 79 114 164 162 88 50 67 68 -83
72 -102 3 -109 4 -107 23 5 47 12 73 27 103 19 38 32 42 149 56 41 5 60 13 67
26 15 28 13 333 -2 348 -11 11 -86 14 -168 5z m150 -182 l0 -168 -69 -5 c-119
-9 -169 -57 -178 -171 l-5 -62 133 2 134 2 -50 -23 c-69 -31 -158 -116 -189
-178 l-26 -52 0 -565 c0 -312 -5 -584 -10 -605 -11 -49 -37 -85 -81 -111 -29
-17 -57 -20 -176 -24 l-143 -3 0 637 0 637 -115 -4 c-130 -3 -122 -10 -104 87
14 76 40 127 82 159 31 24 113 50 128 40 4 -2 10 26 14 63 30 314 206 474 550
503 49 4 93 8 98 9 4 0 7 -75 7 -168z"/>
<path d="M1515 2010 c-64 -10 -142 -51 -195 -103 -59 -58 -92 -133 -98 -223
-9 -145 38 -257 165 -393 46 -50 82 -91 78 -91 -3 0 11 -14 30 -32 33 -28 115
-168 99 -168 -4 0 -1 -7 6 -15 8 -10 12 -54 13 -136 0 -96 3 -122 14 -126 14
-5 67 20 223 105 350 192 626 445 702 643 67 177 59 297 -28 403 -75 93 -172
138 -296 138 -114 0 -169 -22 -249 -99 l-67 -64 -46 49 c-53 56 -128 97 -205
112 -59 11 -73 11 -146 0z m239 -49 c71 -35 131 -96 144 -145 l8 -30 27 46
c37 63 108 123 176 149 77 29 193 23 273 -15 120 -57 198 -172 198 -294 0
-280 -281 -583 -806 -867 -76 -41 -141 -75 -144 -75 -3 0 -5 58 -5 128 0 128
0 128 -37 203 -27 54 -70 111 -159 209 -134 148 -171 211 -188 317 -29 186 65
341 242 399 26 9 73 13 124 11 67 -3 92 -9 147 -36z"/>
<path d="M15 1360 c15 -411 276 -854 649 -1104 215 -143 463 -230 691 -243 61
-3 107 -2 103 2 -4 4 -24 9 -45 10 -75 6 -207 31 -342 65 -54 13 -187 68 -261
107 -179 95 -360 249 -484 411 -125 164 -233 397 -262 567 -3 17 -9 44 -14 60
-5 17 -11 59 -15 95 -12 133 -25 151 -20 30z"/>
<path d="M2981 1440 c-1 -8 -4 -24 -7 -35 -2 -11 -6 -40 -9 -65 -11 -81 -37
-213 -47 -239 -5 -14 -11 -33 -13 -42 -17 -82 -116 -287 -191 -396 -98 -142
-255 -296 -399 -393 -179 -120 -438 -212 -665 -236 -100 -11 -117 -23 -32 -23
41 -1 120 8 175 20 449 91 828 376 1037 780 100 195 166 435 158 579 -2 36 -5
58 -7 50z"/>
</g>
</svg>
